HIERARCHY
ROOT Hips
{
	OFFSET 0.000000 87.230942 0.000000
	CHANNELS 6 Xposition Yposition Zposition Xrotation Yrotation Zrotation
	JOINT Pelvis
	{
		OFFSET 0.000000 0.000000 0.000000
		CHANNELS 3 Xrotation Yrotation Zrotation
		JOINT LeftUpLeg
		{
			OFFSET 12.017000 -9.376404 -2.439400
			CHANNELS 3 Xrotation Yrotation Zrotation
			JOINT LeftLeg
			{
				OFFSET -0.007312 -32.846973 2.110600
				CHANNELS 3 Xrotation Yrotation Zrotation
				JOINT LeftFoot
				{
					OFFSET 0.007312 -32.065170 -0.570400
					CHANNELS 3 Xrotation Yrotation Zrotation
					JOINT LeftToeBase
					{
						OFFSET 0.728300 -11.045900 13.180700
						CHANNELS 3 Xrotation Yrotation Zrotation
						End Site
						{
							OFFSET 0.000000 17.212589 0.000000
						}
					}
				}
				JOINT LeftPantLeg
				{
					OFFSET 0.002788 -16.709013 -3.143600
					CHANNELS 3 Xrotation Yrotation Zrotation
					End Site
					{
						OFFSET -0.605125 24.528742 0.000000
					}
				}
			}
			JOINT Left_Butt
			{
				OFFSET -6.630234 1.326584 -3.183700
				CHANNELS 3 Xrotation Yrotation Zrotation
				End Site
				{
					OFFSET -0.498041 20.188049 0.000000
				}
			}
		}
		JOINT RightUpLeg
		{
			OFFSET -11.717000 -9.376404 -2.439400
			CHANNELS 3 Xrotation Yrotation Zrotation
			JOINT RightLeg
			{
				OFFSET -0.003241 -32.846912 2.110600
				CHANNELS 3 Xrotation Yrotation Zrotation
				JOINT RightFoot
				{
					OFFSET 0.003241 -32.065136 -0.570500
					CHANNELS 3 Xrotation Yrotation Zrotation
					JOINT RightToeBase
					{
						OFFSET -0.728300 -11.045901 13.180700
						CHANNELS 3 Xrotation Yrotation Zrotation
						End Site
						{
							OFFSET 0.000000 17.212593 0.000000
						}
					}
				}
				JOINT RightPantLeg
				{
					OFFSET 0.008142 -16.708982 -3.143700
					CHANNELS 3 Xrotation Yrotation Zrotation
					End Site
					{
						OFFSET 0.605088 24.528715 0.000000
					}
				}
			}
			JOINT Right_Butt
			{
				OFFSET 6.630732 1.326584 -3.183700
				CHANNELS 3 Xrotation Yrotation Zrotation
				End Site
				{
					OFFSET 0.498015 20.188240 0.000000
				}
			}
		}
	}
	JOINT Spine
	{
		OFFSET -0.062400 7.848404 3.918300
		CHANNELS 3 Xrotation Yrotation Zrotation
		JOINT Spine1
		{
			OFFSET -0.072800 11.422302 0.713400
			CHANNELS 3 Xrotation Yrotation Zrotation
			JOINT Spine2
			{
				OFFSET -0.083200 13.054001 -1.931600
				CHANNELS 3 Xrotation Yrotation Zrotation
				JOINT Neck
				{
					OFFSET -0.092200 14.121796 -5.138800
					CHANNELS 3 Xrotation Yrotation Zrotation
					JOINT Head
					{
						OFFSET 0.000200 10.447403 -0.842000
						CHANNELS 3 Xrotation Yrotation Zrotation
						JOINT Visor
						{
							OFFSET 0.457100 25.671204 16.550400
							CHANNELS 3 Xrotation Yrotation Zrotation
							End Site
							{
								OFFSET 0.000000 26.061493 0.000000
							}
						}
						JOINT HairMidA
						{
							OFFSET 0.459400 31.585403 8.437400
							CHANNELS 3 Xrotation Yrotation Zrotation
							End Site
							{
								OFFSET 0.000000 26.061493 0.000000
							}
						}
						JOINT HairMidB
						{
							OFFSET 0.464000 33.309204 -8.389700
							CHANNELS 3 Xrotation Yrotation Zrotation
							End Site
							{
								OFFSET 0.000000 26.061493 0.000000
							}
						}
						JOINT HairMidC
						{
							OFFSET 0.466600 27.991196 -17.375099
							CHANNELS 3 Xrotation Yrotation Zrotation
							End Site
							{
								OFFSET 0.000000 26.061493 0.000000
							}
						}
						JOINT HairMidD
						{
							OFFSET 0.467700 17.888092 -21.169500
							CHANNELS 3 Xrotation Yrotation Zrotation
							End Site
							{
								OFFSET 0.000000 26.061493 0.000000
							}
						}
						JOINT HairMidE
						{
							OFFSET 5.325700 3.514603 -14.369699
							CHANNELS 3 Xrotation Yrotation Zrotation
							End Site
							{
								OFFSET 0.000000 26.061493 0.000000
							}
						}
						JOINT HairMidF
						{
							OFFSET -4.394100 3.514603 -14.372400
							CHANNELS 3 Xrotation Yrotation Zrotation
							End Site
							{
								OFFSET 0.000000 26.061493 0.000000
							}
						}
						JOINT HairLeftA
						{
							OFFSET 15.319900 25.746506 2.623300
							CHANNELS 3 Xrotation Yrotation Zrotation
							End Site
							{
								OFFSET 0.000000 26.061493 0.000000
							}
						}
						JOINT HairLeftB
						{
							OFFSET 12.619500 29.289398 -8.731499
							CHANNELS 3 Xrotation Yrotation Zrotation
							End Site
							{
								OFFSET 0.000000 26.061493 0.000000
							}
						}
						JOINT HairLeftC
						{
							OFFSET 15.714800 15.959900 2.909800
							CHANNELS 3 Xrotation Yrotation Zrotation
							End Site
							{
								OFFSET 0.000000 26.061493 0.000000
							}
						}
						JOINT HairLeftD
						{
							OFFSET 16.101700 18.437408 -7.553200
							CHANNELS 3 Xrotation Yrotation Zrotation
							End Site
							{
								OFFSET 0.000000 26.061493 0.000000
							}
						}
						JOINT HairLeftE
						{
							OFFSET 9.731900 17.915009 -18.316799
							CHANNELS 3 Xrotation Yrotation Zrotation
							End Site
							{
								OFFSET 0.000000 26.061493 0.000000
							}
						}
						JOINT HairLeftF
						{
							OFFSET 11.204300 4.953598 -9.668100
							CHANNELS 3 Xrotation Yrotation Zrotation
							End Site
							{
								OFFSET 0.000000 26.061493 0.000000
							}
						}
						JOINT HairRightA
						{
							OFFSET -14.397900 25.746307 2.615100
							CHANNELS 3 Xrotation Yrotation Zrotation
							End Site
							{
								OFFSET 0.000000 26.061493 0.000000
							}
						}
						JOINT HairRightB
						{
							OFFSET -11.691200 29.289200 -8.738199
							CHANNELS 3 Xrotation Yrotation Zrotation
							End Site
							{
								OFFSET 0.000000 26.061493 0.000000
							}
						}
						JOINT HairRightC
						{
							OFFSET -14.792900 15.959702 2.901400
							CHANNELS 3 Xrotation Yrotation Zrotation
							End Site
							{
								OFFSET 0.000000 26.061493 0.000000
							}
						}
						JOINT HairRightD
						{
							OFFSET -15.174000 18.437195 -7.561900
							CHANNELS 3 Xrotation Yrotation Zrotation
							End Site
							{
								OFFSET 0.000000 26.061493 0.000000
							}
						}
						JOINT HairRightE
						{
							OFFSET -8.798200 17.914902 -18.322001
							CHANNELS 3 Xrotation Yrotation Zrotation
							End Site
							{
								OFFSET 0.000000 26.061493 0.000000
							}
						}
						JOINT HairRightF
						{
							OFFSET -10.275200 4.953506 -9.674099
							CHANNELS 3 Xrotation Yrotation Zrotation
							End Site
							{
								OFFSET 0.000000 26.061493 0.000000
							}
						}
					}
				}
				JOINT LeftShoulder
				{
					OFFSET 5.133500 7.341202 -1.867600
					CHANNELS 3 Xrotation Yrotation Zrotation
					JOINT LeftArm
					{
						OFFSET 8.072663 0.936867 -2.176600
						CHANNELS 3 Xrotation Yrotation Zrotation
						JOINT LeftForeArm
						{
							OFFSET 31.271999 0.000000 0.000000
							CHANNELS 3 Xrotation Yrotation Zrotation
							JOINT LeftHand
							{
								OFFSET 31.771030 0.000000 0.000000
								CHANNELS 3 Xrotation Yrotation Zrotation
								JOINT LeftHandThumb1
								{
									OFFSET 2.886520 -2.557846 4.416640
									CHANNELS 3 Xrotation Yrotation Zrotation
									JOINT LeftHandThumb2
									{
										OFFSET 2.371025 -1.368912 1.368911
										CHANNELS 3 Xrotation Yrotation Zrotation
										JOINT LeftHandThumb3
										{
											OFFSET 2.243378 -1.295212 1.295213
											CHANNELS 3 Xrotation Yrotation Zrotation
											End Site
											{
												OFFSET -0.332611 2.876945 0.020015
											}
										}
									}
								}
								JOINT LeftHandIndex1
								{
									OFFSET 8.568985 -0.641945 3.119977
									CHANNELS 3 Xrotation Yrotation Zrotation
									JOINT LeftHandIndex2
									{
										OFFSET 3.348503 0.000000 0.000000
										CHANNELS 3 Xrotation Yrotation Zrotation
										JOINT LeftHandIndex3
										{
											OFFSET 3.314552 0.000000 0.000000
											CHANNELS 3 Xrotation Yrotation Zrotation
											End Site
											{
												OFFSET -1.032898 3.075485 0.678796
											}
										}
									}
								}
								JOINT LeftHandMiddle1
								{
									OFFSET 8.124603 0.000000 0.000000
									CHANNELS 3 Xrotation Yrotation Zrotation
									JOINT LeftHandMiddle2
									{
										OFFSET 4.166275 0.000000 0.000000
										CHANNELS 3 Xrotation Yrotation Zrotation
										JOINT LeftHandMiddle3
										{
											OFFSET 3.018135 0.000000 0.000000
											CHANNELS 3 Xrotation Yrotation Zrotation
											End Site
											{
												OFFSET -1.032700 2.767982 0.617226
											}
										}
									}
								}
								JOINT LeftHandRing1
								{
									OFFSET 8.571686 -0.031357 -2.884048
									CHANNELS 3 Xrotation Yrotation Zrotation
									JOINT LeftHandRing2
									{
										OFFSET 3.671181 0.000000 0.000000
										CHANNELS 3 Xrotation Yrotation Zrotation
										JOINT LeftHandRing3
										{
											OFFSET 2.728851 0.000000 0.000000
											CHANNELS 3 Xrotation Yrotation Zrotation
											End Site
											{
												OFFSET -0.815796 2.539223 0.577389
											}
										}
									}
								}
								JOINT LeftHandPinky1
								{
									OFFSET 7.854515 -0.675232 -5.213020
									CHANNELS 3 Xrotation Yrotation Zrotation
									JOINT LeftHandPinky2
									{
										OFFSET 3.068596 0.000000 0.000000
										CHANNELS 3 Xrotation Yrotation Zrotation
										JOINT LeftHandPinky3
										{
											OFFSET 2.396042 0.000000 0.000000
											CHANNELS 3 Xrotation Yrotation Zrotation
											End Site
											{
												OFFSET -0.524597 2.267998 0.567429
											}
										}
									}
								}
							}
							JOINT LeftSleeve
							{
								OFFSET 19.684509 -0.200119 0.476146
								CHANNELS 3 Xrotation Yrotation Zrotation
								End Site
								{
									OFFSET -0.031017 25.731133 -0.002868
								}
							}
						}
					}
				}
				JOINT RightShoulder
				{
					OFFSET -4.395900 7.341202 -1.870200
					CHANNELS 3 Xrotation Yrotation Zrotation
					JOINT RightArm
					{
						OFFSET -8.071453 0.936867 -2.181100
						CHANNELS 3 Xrotation Yrotation Zrotation
						JOINT RightForeArm
						{
							OFFSET -31.272011 0.000000 0.000000
							CHANNELS 3 Xrotation Yrotation Zrotation
							JOINT RightHand
							{
								OFFSET -31.771019 0.000000 0.000000
								CHANNELS 3 Xrotation Yrotation Zrotation
								JOINT RightHandThumb1
								{
									OFFSET -2.886520 -2.557808 4.416626
									CHANNELS 3 Xrotation Yrotation Zrotation
									JOINT RightHandThumb2
									{
										OFFSET -2.371056 -1.368927 1.368928
										CHANNELS 3 Xrotation Yrotation Zrotation
										JOINT RightHandThumb3
										{
											OFFSET -2.243362 -1.295204 1.295206
											CHANNELS 3 Xrotation Yrotation Zrotation
											End Site
											{
												OFFSET 0.332642 2.876938 0.020047
											}
										}
									}
								}
								JOINT RightHandIndex1
								{
									OFFSET -8.568993 -0.641953 3.120017
									CHANNELS 3 Xrotation Yrotation Zrotation
									JOINT RightHandIndex2
									{
										OFFSET -3.348518 0.000000 0.000000
										CHANNELS 3 Xrotation Yrotation Zrotation
										JOINT RightHandIndex3
										{
											OFFSET -3.314552 0.000000 0.000000
											CHANNELS 3 Xrotation Yrotation Zrotation
											End Site
											{
												OFFSET 1.032898 3.075478 0.678804
											}
										}
									}
								}
								JOINT RightHandMiddle1
								{
									OFFSET -8.124588 0.000000 0.000000
									CHANNELS 3 Xrotation Yrotation Zrotation
									JOINT RightHandMiddle2
									{
										OFFSET -4.166275 0.000000 0.000000
										CHANNELS 3 Xrotation Yrotation Zrotation
										JOINT RightHandMiddle3
										{
											OFFSET -3.018097 0.000000 0.000000
											CHANNELS 3 Xrotation Yrotation Zrotation
											End Site
											{
												OFFSET 1.032700 2.767937 0.617197
											}
										}
									}
								}
								JOINT RightHandRing1
								{
									OFFSET -8.571747 -0.031349 -2.884061
									CHANNELS 3 Xrotation Yrotation Zrotation
									JOINT RightHandRing2
									{
										OFFSET -3.671204 0.000000 0.000000
										CHANNELS 3 Xrotation Yrotation Zrotation
										JOINT RightHandRing3
										{
											OFFSET -2.728874 0.000000 0.000000
											CHANNELS 3 Xrotation Yrotation Zrotation
											End Site
											{
												OFFSET 0.815804 2.539261 0.577413
											}
										}
									}
								}
								JOINT RightHandPinky1
								{
									OFFSET -7.854561 -0.675247 -5.212970
									CHANNELS 3 Xrotation Yrotation Zrotation
									JOINT RightHandPinky2
									{
										OFFSET -3.068550 0.000000 0.000000
										CHANNELS 3 Xrotation Yrotation Zrotation
										JOINT RightHandPinky3
										{
											OFFSET -2.395981 0.000000 0.000000
											CHANNELS 3 Xrotation Yrotation Zrotation
											End Site
											{
												OFFSET 0.524605 2.267952 0.567413
											}
										}
									}
								}
							}
							JOINT RightSleeve
							{
								OFFSET -19.684753 -0.200165 0.476065
								CHANNELS 3 Xrotation Yrotation Zrotation
								End Site
								{
									OFFSET 0.031342 25.731255 -0.002917
								}
							}
						}
					}
				}
				JOINT Hood
				{
					OFFSET 0.369700 14.447800 -5.317800
					CHANNELS 3 Xrotation Yrotation Zrotation
					JOINT Hood1
					{
						OFFSET 0.001700 -5.553802 -5.895100
						CHANNELS 3 Xrotation Yrotation Zrotation
						JOINT Hood2
						{
							OFFSET -0.000200 -8.380501 0.763600
							CHANNELS 3 Xrotation Yrotation Zrotation
							End Site
							{
								OFFSET 0.000000 8.415215 0.000000
							}
						}
					}
				}
				JOINT Left_Breast
				{
					OFFSET 5.682500 3.120102 3.188800
					CHANNELS 3 Xrotation Yrotation Zrotation
					End Site
					{
						OFFSET 0.000000 10.528564 0.000000
					}
				}
				JOINT Right_Breast
				{
					OFFSET -4.947600 3.120102 3.185900
					CHANNELS 3 Xrotation Yrotation Zrotation
					End Site
					{
						OFFSET 0.000000 10.528564 0.000000
					}
				}
				JOINT Whistle
				{
					OFFSET 0.368200 11.471298 0.095400
					CHANNELS 3 Xrotation Yrotation Zrotation
					JOINT Whistle1
					{
						OFFSET -0.002000 -6.349899 7.479800
						CHANNELS 3 Xrotation Yrotation Zrotation
						JOINT Whistle2
						{
							OFFSET -0.001300 -8.217598 4.717600
							CHANNELS 3 Xrotation Yrotation Zrotation
							End Site
							{
								OFFSET 0.000000 9.475479 0.000000
							}
						}
					}
				}
			}
		}
		JOINT Belly
		{
			OFFSET 0.212400 1.593002 3.163700
			CHANNELS 3 Xrotation Yrotation Zrotation
			End Site
			{
				OFFSET 0.000000 7.496635 0.000000
			}
		}
	}
	JOINT FitGrandmaFacialAnim_Joint
	{
		OFFSET 1.150000 -86.211197 -1.220100
		CHANNELS 3 Xrotation Yrotation Zrotation
		End Site
		{
			OFFSET 0.000000 31.666618 0.000000
		}
	}
}
MOTION
Frames: 4
Frame Time: 0.016667
2.423747 170.658661 -21.871193 5.213875 -7.535913 0.236423 -0.000000 -0.000001 0.000000 -86.493158 16.925041 21.758558 97.588780 1.393061 5.575886 -11.309852 11.076716 -27.443311 0.000001 -0.000001 0.000001 0.000001 -0.000001 0.000001 -0.000001 0.000001 0.000001 -100.036877 5.863680 -11.253291 107.596216 -5.541716 -1.958326 -1.165732 -11.342764 34.558776 -0.000002 0.000004 -0.000004 -0.000000 0.000003 -0.000001 0.000000 0.000001 -0.000001 8.445864 -0.550890 -0.629611 16.887416 -1.177192 -1.114029 16.887428 -1.177191 -1.114029 -26.807217 6.493741 -1.451445 4.682590 -9.389105 9.652374 -0.000001 -0.000001 -0.000000 -0.000001 -0.000001 -0.000000 -0.000001 -0.000001 -0.000000 -0.000001 -0.000001 -0.000000 -0.000001 -0.000001 -0.000000 -0.000001 -0.000001 -0.000000 -0.000001 -0.000001 -0.000000 -0.000001 -0.000001 -0.000000 -0.000001 -0.000001 -0.000000 -0.000001 -0.000001 -0.000000 -0.000001 -0.000001 -0.000000 -0.000001 -0.000001 -0.000000 -0.000001 -0.000001 -0.000000 -0.000001 -0.000001 -0.000000 -0.000001 -0.000001 -0.000000 -0.000001 -0.000001 -0.000000 -0.000001 -0.000001 -0.000000 -0.000001 -0.000001 -0.000000 -0.000001 -0.000001 -0.000000 -0.612878 -14.977176 27.292802 -67.334778 -8.203765 -15.014248 16.808259 -68.480289 48.053017 33.848888 9.957006 32.839645 -11.360205 -10.015399 28.397697 19.621105 23.755284 -10.341694 -0.000000 -0.000001 0.000002 -7.847214 -3.445024 -67.091254 -4.893154 2.726489 -36.316423 0.000000 0.000001 0.000001 -10.129405 -3.872138 -67.774260 -1.765738 1.717436 -28.158387 -0.000001 -0.000000 -0.000002 -15.176942 7.293299 -70.201729 7.766222 -0.421209 -31.520053 -0.000001 -0.000002 -0.000002 -16.483441 5.440107 -74.872718 8.338720 -0.185834 -18.883067 0.000000 0.000000 -0.000001 -0.000002 -0.000000 -0.000001 6.218767 17.756040 -13.894188 -82.947955 43.284517 24.548745 -18.192446 53.742473 -21.031691 34.793605 6.403813 -40.032367 15.333553 1.500907 -10.491458 -10.396776 -3.067631 -10.223940 -0.000001 0.000001 0.000002 0.920239 3.497203 64.452179 1.730977 9.565823 38.865463 -0.000002 -0.000001 0.000001 -6.652434 -3.924313 64.485708 9.406005 5.988766 38.253629 0.000000 0.000001 -0.000005 -5.546312 1.390173 64.784802 0.232710 -1.792509 39.151751 0.000002 0.000000 0.000001 -17.806360 -16.572325 61.043293 25.326744 3.860142 27.748231 -0.000001 -0.000001 0.000001 -0.000003 -0.000004 0.000003 0.000000 0.000000 -0.000000 0.000000 0.000000 -0.000000 0.000000 0.000000 -0.000000 0.000000 0.000000 -0.000000 0.000000 0.000000 -0.000000 0.000000 0.000000 -0.000000 0.000002 0.000001 0.000000 0.000002 0.000001 0.000000 -0.000001 -0.000001 0.000000 -0.000000 -0.000001 0.000000 
2.540472 170.652084 -22.743025 3.847137 -7.725955 0.292311 0.000000 -0.000000 -0.000000 -89.524560 15.275344 22.039210 97.407862 -0.270668 3.998557 -11.285765 11.070788 -27.247103 -0.000000 -0.000001 -0.000001 -0.000000 -0.000000 0.000000 -0.000000 -0.000001 0.000002 -100.916626 3.661761 -11.859713 103.737548 -3.109745 -2.490246 -2.001918 -11.031371 33.246328 -0.000000 0.000002 -0.000001 0.000000 0.000001 0.000000 0.000000 0.000001 -0.000000 9.097401 -0.411468 -0.634660 18.191669 -0.858377 -1.119250 18.191659 -0.858374 -1.119250 -27.539473 7.278517 -1.689585 7.619250 -10.946533 10.643141 0.000000 0.000001 -0.000001 0.000000 0.000001 -0.000001 0.000000 0.000001 -0.000001 0.000000 0.000001 -0.000001 0.000000 0.000001 -0.000001 0.000000 0.000001 -0.000001 0.000000 0.000001 -0.000001 0.000000 0.000001 -0.000001 0.000000 0.000001 -0.000001 0.000000 0.000001 -0.000001 0.000000 0.000001 -0.000001 0.000000 0.000001 -0.000001 0.000000 0.000001 -0.000001 0.000000 0.000001 -0.000001 0.000000 0.000001 -0.000001 0.000000 0.000001 -0.000001 0.000000 0.000001 -0.000001 0.000000 0.000001 -0.000001 0.000000 0.000001 -0.000001 0.325157 -15.904562 27.503485 -69.510589 -10.660073 -14.371495 10.803125 -66.204272 45.525506 35.794696 7.408722 31.709812 -11.360205 -10.015385 28.397698 19.621117 23.755266 -10.341714 -0.000000 -0.000001 0.000001 -7.847215 -3.445020 -67.091241 -4.893194 2.726510 -36.316423 0.000001 -0.000001 0.000000 -10.129403 -3.872151 -67.774260 -1.765758 1.717306 -28.158370 -0.000001 -0.000002 -0.000002 -15.176942 7.293262 -70.201743 7.766221 -0.421166 -31.520063 0.000001 0.000001 -0.000001 -16.483400 5.440023 -74.872704 8.338649 -0.185786 -18.883067 0.000000 0.000000 0.000001 -0.000004 -0.000001 0.000000 6.708638 18.898917 -14.296318 -85.364114 45.042441 22.649411 -20.331793 51.306212 -20.083193 36.853044 8.003282 -39.095094 15.333563 1.500910 -10.491470 -10.396776 -3.067632 -10.223939 0.000001 -0.000000 -0.000000 0.920255 3.497235 64.452165 1.731018 9.565863 38.865463 -0.000002 0.000000 0.000003 -6.652430 -3.924325 64.485694 9.406016 5.988760 38.253639 0.000001 0.000001 -0.000001 -5.546329 1.390179 64.784761 0.232795 -1.792470 39.151758 0.000001 -0.000002 -0.000001 -17.806353 -16.572324 61.043299 25.326896 3.860239 27.748239 -0.000001 -0.000002 0.000002 -0.000004 0.000000 0.000001 -0.000002 0.000000 -0.000000 -0.000002 0.000000 -0.000000 -0.000002 0.000000 -0.000000 -0.000002 0.000000 -0.000000 -0.000002 0.000000 -0.000000 -0.000002 0.000000 -0.000000 0.000001 0.000001 0.000000 0.000001 0.000001 0.000000 -0.000000 0.000000 -0.000000 0.000000 -0.000000 -0.000000 
2.609648 170.543777 -23.513245 2.544096 -7.775738 0.401881 0.000000 -0.000001 0.000000 -91.487399 14.257689 21.765405 95.243245 -1.968196 2.869063 -10.504933 10.761662 -26.549534 -0.000001 -0.000001 0.000001 -0.000000 -0.000001 -0.000000 0.000001 0.000000 0.000001 -100.503447 1.191924 -12.491526 98.503089 -0.337064 -2.709637 -3.411174 -10.571627 30.689474 -0.000002 0.000003 0.000000 0.000000 0.000003 0.000000 -0.000000 0.000000 -0.000001 9.691589 -0.289992 -0.635723 19.380870 -0.593885 -1.137936 19.380860 -0.593884 -1.137937 -27.906165 8.033920 -1.876916 10.220138 -12.179000 11.188141 0.000002 -0.000000 -0.000000 0.000002 -0.000000 -0.000000 0.000002 -0.000000 -0.000000 0.000002 -0.000000 -0.000000 0.000002 -0.000000 -0.000000 0.000002 -0.000000 -0.000000 0.000002 -0.000000 -0.000000 0.000002 -0.000000 -0.000000 0.000002 -0.000000 -0.000000 0.000002 -0.000000 -0.000000 0.000002 -0.000000 -0.000000 0.000002 -0.000000 -0.000000 0.000002 -0.000000 -0.000000 0.000002 -0.000000 -0.000000 0.000002 -0.000000 -0.000000 0.000002 -0.000000 -0.000000 0.000002 -0.000000 -0.000000 0.000002 -0.000000 -0.000000 0.000002 -0.000000 -0.000000 1.416577 -16.917211 27.896856 -71.463935 -13.211088 -13.429065 5.023488 -63.827257 43.312456 37.747420 4.815431 30.664011 -11.360213 -10.015401 28.397693 19.621098 23.755266 -10.341712 -0.000001 -0.000002 0.000002 -7.847215 -3.445024 -67.091227 -4.893211 2.726542 -36.316427 0.000002 -0.000000 0.000000 -10.129383 -3.872177 -67.774246 -1.765779 1.717170 -28.158368 -0.000002 -0.000001 -0.000002 -15.176926 7.293225 -70.201736 7.766215 -0.421187 -31.520063 -0.000001 0.000001 -0.000001 -16.483362 5.439943 -74.872698 8.338582 -0.185709 -18.883074 0.000001 -0.000003 0.000001 -0.000001 -0.000000 -0.000003 7.401552 20.145756 -15.002637 -85.334799 46.412245 18.300083 -22.943319 49.160252 -18.542905 37.921641 8.917811 -38.636765 15.333556 1.500908 -10.491469 -10.396776 -3.067633 -10.223937 0.000000 0.000001 -0.000000 0.920252 3.497252 64.452165 1.731075 9.565925 38.865440 -0.000003 0.000002 0.000002 -6.652419 -3.924312 64.485687 9.406000 5.988800 38.253636 -0.000001 -0.000000 0.000000 -5.546315 1.390189 64.784768 0.232882 -1.792389 39.151751 0.000003 0.000001 -0.000001 -17.806356 -16.572312 61.043279 25.327050 3.860323 27.748229 -0.000001 0.000000 0.000000 -0.000003 -0.000003 0.000003 -0.000004 -0.000000 -0.000000 -0.000004 -0.000000 -0.000000 -0.000004 -0.000000 -0.000000 -0.000004 -0.000000 -0.000000 -0.000004 -0.000000 -0.000000 -0.000004 -0.000000 -0.000000 0.000001 -0.000000 -0.000000 0.000001 -0.000000 -0.000000 -0.000000 0.000000 -0.000000 0.000000 -0.000001 0.000000 
2.628458 170.308167 -24.151728 1.364494 -7.739964 0.551925 0.000000 0.000000 0.000000 -92.063246 13.903863 21.031580 91.293415 -3.817666 2.129132 -9.477980 10.270406 -25.106683 0.000000 0.000001 -0.000003 -0.000000 -0.000000 0.000000 -0.000000 -0.000001 -0.000000 -98.800585 -1.470888 -13.050157 92.023296 2.585119 -2.594621 -5.102252 -9.902775 27.026662 -0.000003 -0.000002 -0.000000 -0.000000 -0.000001 0.000000 0.000001 0.000000 -0.000001 10.216371 -0.194582 -0.628873 20.431051 -0.404106 -1.150169 20.431024 -0.404107 -1.150168 -27.891889 8.715286 -1.992549 12.324966 -12.999075 11.298010 -0.000003 0.000001 -0.000000 -0.000003 0.000001 -0.000000 -0.000003 0.000001 -0.000000 -0.000003 0.000001 -0.000000 -0.000003 0.000001 -0.000000 -0.000003 0.000001 -0.000000 -0.000003 0.000001 -0.000000 -0.000003 0.000001 -0.000000 -0.000003 0.000001 -0.000000 -0.000003 0.000001 -0.000000 -0.000003 0.000001 -0.000000 -0.000003 0.000001 -0.000000 -0.000003 0.000001 -0.000000 -0.000003 0.000001 -0.000000 -0.000003 0.000001 -0.000000 -0.000003 0.000001 -0.000000 -0.000003 0.000001 -0.000000 -0.000003 0.000001 -0.000000 -0.000003 0.000001 -0.000000 2.554324 -17.796336 28.564111 -72.885085 -15.245554 -11.944080 -0.383352 -61.659758 41.125047 39.226480 2.594652 29.927529 -11.360209 -10.015398 28.397698 19.621119 23.755273 -10.341717 -0.000000 0.000001 0.000003 -7.847226 -3.445027 -67.091234 -4.893239 2.726585 -36.316420 0.000002 -0.000000 0.000000 -10.129370 -3.872214 -67.774239 -1.765800 1.717017 -28.158363 -0.000001 -0.000000 -0.000003 -15.176907 7.293180 -70.201736 7.766218 -0.421194 -31.520059 0.000002 -0.000000 -0.000002 -16.483350 5.439863 -74.872725 8.338508 -0.185621 -18.883082 0.000000 -0.000001 0.000001 -0.000000 0.000002 -0.000004 8.191219 21.269083 -15.938351 -83.291370 47.315862 12.192954 -25.736559 47.219656 -16.682264 38.042125 9.218877 -38.545237 15.333560 1.500899 -10.491454 -10.396776 -3.067632 -10.223938 0.000000 0.000002 -0.000000 0.920263 3.497256 64.452165 1.731132 9.565951 38.865446 0.000000 -0.000000 -0.000000 -6.652412 -3.924330 64.485701 9.406011 5.988767 38.253636 0.000001 0.000003 -0.000001 -5.546326 1.390178 64.784802 0.232953 -1.792308 39.151758 0.000001 -0.000001 0.000001 -17.806354 -16.572324 61.043293 25.327216 3.860408 27.748210 -0.000003 -0.000001 0.000001 -0.000000 -0.000001 0.000001 0.000001 -0.000000 0.000000 0.000001 -0.000000 0.000000 0.000001 -0.000000 0.000000 0.000001 -0.000000 0.000000 0.000001 -0.000000 0.000000 0.000001 -0.000000 0.000000 0.000001 -0.000000 0.000000 0.000001 -0.000000 0.000000 -0.000000 0.000000 -0.000000 0.000000 0.000000 0.000000 
